<?xml version="1.0" standalone="no"?>
<!DOCTYPE svg PUBLIC "-//W3C//DTD SVG 20010904//EN"
 "http://www.w3.org/TR/2001/REC-SVG-20010904/DTD/svg10.dtd">
<svg version="1.0" xmlns="http://www.w3.org/2000/svg"
 width="1024.000000pt" height="1024.000000pt" viewBox="0 0 1024.000000 1024.000000"
 preserveAspectRatio="xMidYMid meet">
<metadata>
Created by potrace 1.14, written by Peter Selinger 2001-2017
</metadata>
<g transform="translate(0.000000,1024.000000) scale(0.100000,-0.100000)"
fill="#000000" stroke="none">
<path d="M860 10229 c-25 -4 -63 -9 -85 -13 -253 -37 -541 -254 -667 -501 -68
-132 -99 -267 -100 -429 -2 -358 129 -610 422 -814 l55 -38 1 -4089 1 -4090
21 -56 c29 -73 98 -142 171 -170 50 -19 78 -22 256 -23 110 -1 224 2 252 6
122 19 226 120 249 244 4 21 8 419 8 883 l1 844 160 69 c88 38 203 85 255 104
52 19 115 43 140 53 44 18 131 46 280 91 41 12 86 26 100 31 21 7 53 15 130
35 126 32 178 45 195 48 32 8 176 36 209 42 17 3 50 9 74 15 40 9 68 13 145
23 35 5 129 19 137 21 44 11 332 35 485 40 326 12 449 3 750 -55 181 -35 629
-151 805 -209 67 -22 262 -80 287 -86 10 -2 56 -15 103 -30 233 -71 644 -162
875 -195 44 -6 91 -13 105 -16 14 -2 52 -6 85 -9 33 -3 69 -8 80 -10 44 -8
248 -19 385 -19 151 0 416 11 428 18 4 2 44 7 90 10 45 4 117 14 160 22 42 8
95 17 117 20 22 3 105 21 185 39 80 19 156 36 170 39 14 2 54 14 90 26 36 12
70 23 75 24 21 4 151 48 182 62 17 8 37 14 45 14 8 0 18 4 23 9 6 4 51 23 100
40 113 40 513 239 662 329 284 170 314 190 412 285 73 71 123 138 166 226 60
122 78 187 93 341 4 41 7 1180 6 2530 0 1980 -3 2470 -13 2530 -15 85 -59 227
-72 236 -5 3 -9 12 -9 20 0 26 -99 163 -165 229 -129 128 -332 246 -474 276
-25 5 -59 12 -76 16 -61 13 -259 6 -330 -11 -38 -10 -77 -19 -86 -21 -16 -3
-135 -48 -174 -65 -207 -92 -614 -241 -870 -318 -94 -29 -356 -99 -395 -107
-10 -2 -62 -13 -116 -25 -128 -28 -120 -26 -184 -35 -30 -4 -62 -9 -70 -10 -8
-1 -40 -6 -70 -9 -30 -4 -71 -9 -90 -12 -115 -14 -405 -20 -490 -9 -116 15
-242 36 -405 69 -92 19 -300 70 -410 101 -33 9 -67 18 -75 20 -8 2 -175 51
-370 108 -303 89 -517 149 -579 162 -9 2 -72 17 -141 33 -111 27 -150 35 -275
57 -16 2 -39 7 -50 9 -25 5 -157 25 -209 31 -22 3 -51 7 -65 9 -14 3 -60 7
-101 11 -41 3 -93 9 -115 12 -46 6 -488 6 -555 -1 -25 -2 -81 -7 -125 -11
-103 -8 -154 -14 -185 -20 -45 -8 -84 -15 -130 -21 -140 -18 -594 -131 -690
-171 -8 -3 -17 -7 -20 -8 -3 -1 -12 -4 -20 -8 -50 -19 -132 -47 -139 -47 -5 0
-3 23 4 51 28 104 35 323 15 429 -6 36 -21 92 -32 125 -21 60 -85 196 -97 205
-4 3 -23 28 -44 56 -73 101 -263 260 -351 294 -12 4 -42 17 -66 28 -117 52
-328 80 -460 61z m2870 -1923 c41 -4 86 -9 100 -11 14 -2 45 -7 70 -10 291
-37 721 -140 1190 -285 74 -23 159 -48 189 -56 29 -8 58 -17 62 -20 5 -3 20
-7 33 -10 13 -2 61 -15 107 -28 161 -46 434 -111 547 -131 52 -8 87 -15 112
-20 47 -10 132 -23 200 -30 25 -3 61 -7 80 -10 144 -20 466 -20 666 -1 183 18
217 22 287 32 20 3 47 7 60 9 35 4 120 17 140 21 9 2 27 6 39 9 12 2 67 14
122 25 56 12 119 26 141 32 22 5 47 11 55 13 8 2 44 11 80 20 36 9 72 18 80
20 147 33 754 247 940 333 181 83 218 99 235 101 7 1 10 -810 10 -2391 l1
-2393 -136 -90 c-75 -49 -186 -115 -246 -145 -60 -30 -110 -58 -112 -62 -2 -5
-8 -8 -13 -8 -6 0 -38 -13 -72 -29 -282 -135 -704 -252 -992 -277 -33 -3 -66
-7 -73 -9 -72 -24 -618 -24 -737 0 -11 2 -42 7 -70 10 -27 3 -90 13 -140 21
-120 20 -126 21 -155 28 -14 3 -36 8 -50 10 -143 24 -538 130 -880 235 -210
64 -370 110 -409 118 -14 2 -28 6 -33 9 -5 3 -19 7 -31 10 -13 2 -68 15 -123
29 -93 24 -252 59 -319 71 -16 3 -79 14 -140 24 -60 11 -132 22 -160 25 -27 3
-68 7 -90 10 -225 26 -731 16 -1080 -21 -16 -1 -63 -6 -104 -9 -41 -4 -82 -8
-91 -10 -9 -2 -41 -6 -71 -10 -30 -3 -65 -8 -79 -10 -14 -2 -45 -7 -70 -10
-25 -3 -76 -12 -115 -20 -38 -8 -86 -17 -105 -20 -19 -3 -75 -15 -125 -26 -49
-11 -99 -22 -110 -24 -18 -4 -274 -71 -300 -79 -102 -30 -151 -46 -260 -86
-71 -27 -178 -68 -236 -93 l-106 -44 0 2318 0 2318 135 87 c166 106 415 236
582 302 160 64 408 141 510 158 14 3 33 7 42 10 10 3 29 7 43 10 14 2 51 8 83
14 129 22 154 25 247 36 180 19 488 24 645 10z"/>
<path d="M5138 6405 c-2 -2 -33 -7 -68 -10 -36 -3 -99 -13 -140 -23 -41 -9
-78 -16 -82 -17 -3 0 -10 -3 -14 -7 -4 -5 -13 -8 -20 -8 -21 0 -144 -60 -214
-105 -82 -52 -213 -183 -269 -266 -42 -63 -52 -110 -31 -149 6 -11 70 -66 143
-122 128 -100 134 -103 181 -102 49 1 50 2 130 87 139 150 219 195 351 199 82
3 139 -9 211 -43 104 -49 154 -111 155 -196 2 -102 -34 -140 -267 -279 -306
-183 -385 -291 -381 -524 2 -96 19 -132 72 -150 17 -5 118 -9 235 -9 227 2
247 6 275 65 8 18 15 48 15 69 0 70 46 121 180 200 180 107 220 134 281 194
117 117 170 260 164 446 -5 179 -81 344 -220 473 -168 158 -368 249 -585 267
-47 4 -88 9 -91 11 -3 2 -8 1 -11 -1z"/>
<path d="M5047 4529 c-90 -21 -165 -75 -219 -159 -112 -175 -36 -415 159 -502
73 -33 199 -32 273 3 55 26 140 97 140 116 0 6 7 16 14 23 25 20 47 106 47
177 0 82 0 84 -33 153 -39 82 -105 142 -193 176 -45 17 -138 24 -188 13z"/>
</g>
</svg>
