<?xml version="1.0" standalone="no"?>
<!DOCTYPE svg PUBLIC "-//W3C//DTD SVG 20010904//EN"
 "http://www.w3.org/TR/2001/REC-SVG-20010904/DTD/svg10.dtd">
<svg version="1.0" xmlns="http://www.w3.org/2000/svg"
 width="1024.000000pt" height="1024.000000pt" viewBox="0 0 1024.000000 1024.000000"
 preserveAspectRatio="xMidYMid meet">
<metadata>
Created by potrace 1.14, written by Peter Selinger 2001-2017
</metadata>
<g transform="translate(0.000000,1024.000000) scale(0.100000,-0.100000)"
fill="#000000" stroke="none">
<path d="M1498 9465 c-2 -2 -26 -7 -53 -11 -116 -15 -265 -83 -371 -168 -186
-151 -287 -351 -298 -592 -13 -304 106 -552 342 -712 l62 -43 1 -3462 c0
-1904 2 -3473 5 -3487 14 -80 74 -158 151 -195 33 -17 65 -19 228 -21 230 -2
276 7 340 67 24 22 53 64 66 92 l23 52 2 730 c1 402 2 732 3 735 0 3 13 10 29
17 15 7 89 39 165 72 75 33 137 58 137 55 0 -2 12 2 28 9 42 22 405 143 457
153 6 1 62 15 126 32 116 32 379 87 454 96 39 5 98 14 142 21 12 2 57 6 100
10 43 4 89 8 103 11 40 6 315 18 430 17 155 0 192 -5 455 -58 219 -45 337 -76
775 -205 415 -122 724 -197 930 -225 25 -3 52 -8 60 -10 8 -2 40 -6 71 -10 31
-3 65 -7 75 -9 54 -10 228 -19 379 -20 243 0 447 16 630 50 11 2 47 9 80 14
144 26 492 125 625 179 30 13 89 36 130 53 207 83 619 308 760 415 166 126
254 251 302 433 l23 85 0 2160 c0 2298 2 2183 -46 2329 -85 255 -327 452 -641
522 -41 9 -197 5 -261 -7 -76 -14 -159 -42 -341 -118 -367 -152 -876 -312
-1101 -347 -16 -3 -52 -9 -80 -14 -60 -11 -107 -18 -177 -26 -29 -3 -79 -9
-111 -13 -70 -9 -384 -7 -447 3 -36 6 -223 44 -407 82 -30 6 -303 80 -383 103
-137 41 -246 73 -275 82 -16 5 -34 10 -40 10 -5 1 -32 10 -60 19 -27 9 -53 18
-57 19 -4 1 -13 3 -20 5 -7 2 -24 7 -38 10 -14 4 -92 24 -175 45 -82 22 -167
42 -189 45 -21 4 -41 8 -45 10 -3 3 -72 16 -151 29 -151 26 -196 33 -380 54
-87 9 -555 10 -650 0 -36 -4 -87 -9 -115 -12 -27 -3 -61 -7 -75 -10 -13 -3
-42 -7 -65 -10 -77 -11 -101 -16 -230 -45 -161 -37 -363 -98 -524 -158 -11 -4
-12 1 -7 24 12 44 16 65 21 109 8 63 9 217 2 250 -4 17 -9 45 -12 64 -9 56
-65 180 -113 250 -101 151 -288 291 -442 333 -79 21 -178 36 -251 36 -42 0
-79 -1 -81 -3z m2447 -1639 c22 -3 60 -8 85 -11 25 -2 59 -6 75 -9 17 -3 50
-8 75 -11 25 -4 64 -11 88 -16 23 -5 59 -12 79 -15 20 -3 47 -10 60 -15 13 -5
23 -7 23 -4 0 2 15 -1 33 -6 17 -5 45 -12 62 -15 74 -13 312 -79 560 -154 178
-54 300 -89 325 -95 8 -2 42 -11 75 -20 33 -9 76 -21 95 -25 268 -64 456 -101
585 -115 206 -23 483 -23 695 0 14 1 56 6 94 9 38 4 72 8 75 10 3 2 33 7 66
11 32 3 62 8 65 10 3 1 28 6 55 9 28 4 87 16 132 26 46 11 94 22 107 24 29 5
194 49 291 77 211 62 520 176 748 276 81 36 150 63 153 60 3 -3 6 -918 7
-2034 l2 -2028 -100 -65 c-218 -143 -411 -239 -645 -322 -55 -19 -246 -73
-291 -82 -174 -34 -242 -46 -284 -50 -27 -2 -72 -7 -100 -11 -85 -11 -313 -18
-440 -13 -47 1 -309 33 -365 44 -14 2 -38 7 -55 10 -16 2 -38 7 -47 10 -18 5
-38 9 -89 18 -19 3 -122 28 -229 56 -107 27 -204 52 -215 55 -11 3 -58 17
-105 32 -47 15 -89 28 -95 29 -5 1 -57 16 -115 34 -150 46 -459 130 -530 144
-14 2 -77 16 -140 29 -63 14 -149 30 -190 37 -41 7 -83 14 -93 16 -18 3 -122
13 -215 19 -169 13 -735 -7 -855 -30 -10 -2 -55 -7 -100 -10 -45 -4 -131 -15
-192 -25 -60 -10 -130 -21 -155 -25 -227 -33 -656 -159 -904 -264 -54 -23
-101 -39 -105 -36 -3 4 -6 889 -6 1968 l0 1962 115 73 c63 41 138 85 165 99
28 14 57 31 65 38 45 37 443 196 555 221 6 1 37 9 70 17 53 14 156 35 250 52
17 3 50 8 75 11 25 3 56 7 70 10 14 2 66 7 115 10 50 4 91 7 92 8 6 5 344 -2
378 -8z"/>
<path d="M5030 6292 c-65 -10 -211 -53 -265 -77 -73 -34 -164 -94 -225 -149
-49 -44 -153 -164 -170 -197 -31 -58 -15 -109 47 -155 21 -16 43 -33 48 -39
29 -31 155 -115 180 -119 34 -6 90 18 110 48 39 55 154 159 203 182 177 84
426 10 479 -141 20 -58 9 -106 -39 -166 -12 -15 -114 -83 -209 -139 -217 -128
-312 -228 -334 -351 -12 -71 -12 -177 1 -207 25 -61 44 -65 264 -65 172 0 202
2 225 17 30 20 54 69 51 106 -3 35 16 69 58 107 38 35 160 113 176 113 6 0 10
5 10 10 0 6 6 10 13 10 8 0 49 26 93 58 113 83 178 176 211 305 24 95 24 181
-2 302 -8 39 -69 169 -95 203 -51 65 -141 148 -215 197 -160 106 -288 146
-470 149 -66 1 -131 0 -145 -2z"/>
<path d="M5054 4575 c-64 -14 -133 -54 -170 -97 -173 -206 -46 -518 217 -532
136 -7 255 67 312 193 32 71 29 189 -8 260 -70 139 -209 208 -351 176z"/>
</g>
</svg>
